<?xml version="1.0" standalone="no"?><!DOCTYPE svg PUBLIC "-//W3C//DTD SVG 1.1//EN" "http://www.w3.org/Graphics/SVG/1.1/DTD/svg11.dtd"><svg t="1613716411431" class="icon" viewBox="0 0 1024 1024" version="1.1" xmlns="http://www.w3.org/2000/svg" p-id="2069" xmlns:xlink="http://www.w3.org/1999/xlink" width="200" height="200"><defs><style type="text/css"></style></defs><path d="M627.362909 623.104c-129.210182 0-234.309818-105.122909-234.309818-234.309818S498.152727 154.461091 627.362909 154.461091s234.309818 105.122909 234.309818 234.333091-105.099636 234.309818-234.309818 234.309818z m0-422.097455c-103.540364 0-187.764364 84.247273-187.764364 187.787637 0 103.540364 84.247273 187.764364 187.764364 187.764363 103.540364 0 187.764364-84.247273 187.764364-187.764363 0-103.540364-84.224-187.787636-187.764364-187.787637z" p-id="2070"></path><path d="M948.270545 924.904727c-10.821818-168.587636-151.761455-300.660364-320.907636-300.660363-169.099636 0-310.062545 132.026182-320.907636 300.590545l-46.452364-3.002182c12.427636-192.977455 173.777455-344.133818 367.36-344.133818 193.605818 0 354.978909 151.202909 367.36 344.203636l-46.452364 3.002182zM416.302545 593.454545c-129.210182 0-234.309818-105.122909-234.309818-234.309818S287.092364 124.811636 416.302545 124.811636v46.545455c-103.540364 0-187.764364 84.247273-187.764363 187.787636 0 103.540364 84.247273 187.764364 187.764363 187.764364v46.545454z" p-id="2071"></path><path d="M95.394909 895.208727l-46.452364-3.002182c12.427636-192.977455 173.777455-344.157091 367.36-344.15709v46.545454c-169.099636 0-310.062545 132.049455-320.907636 300.613818z" p-id="2072"></path></svg>