<?xml version="1.0" standalone="no"?><!DOCTYPE svg PUBLIC "-//W3C//DTD SVG 1.1//EN" "http://www.w3.org/Graphics/SVG/1.1/DTD/svg11.dtd"><svg t="1613718121229" class="icon" viewBox="0 0 1117 1024" version="1.1" xmlns="http://www.w3.org/2000/svg" p-id="5343" xmlns:xlink="http://www.w3.org/1999/xlink" width="218.1640625" height="200"><defs><style type="text/css"></style></defs><path d="M703.769135 410.158545H33.514589a11.450182 11.450182 0 0 1-11.170909-11.636363v-81.454546c0-6.330182 5.026909-11.636364 11.170909-11.636363h670.254546c6.144 0 11.170909 5.306182 11.170909 11.636363v81.454546a11.450182 11.450182 0 0 1-11.170909 11.636363z m11.170909 296.773819a11.450182 11.450182 0 0 1-11.170909 11.636363H33.514589a11.450182 11.450182 0 0 1-11.170909-11.636363v-81.454546c0-6.423273 5.026909-11.636364 11.170909-11.636363h670.254546c6.144 0 11.170909 5.213091 11.170909 11.636363v81.454546zM11.172771 0h1094.749091c6.144 0 11.170909 5.213091 11.170909 11.636364V93.090909a11.450182 11.450182 0 0 1-11.170909 11.636364H11.172771A11.450182 11.450182 0 0 1 0.001862 93.090909V11.636364C0.001862 5.213091 5.028771 0 11.172771 0z m0 919.272727h1094.749091c6.144 0 11.170909 5.213091 11.170909 11.636364v81.454545a11.450182 11.450182 0 0 1-11.170909 11.636364H11.172771a11.450182 11.450182 0 0 1-11.170909-11.636364V930.909091c0-6.423273 5.026909-11.636364 11.170909-11.636364z m1063.470545-218.018909L856.345135 522.146909a13.218909 13.218909 0 0 1 0-20.200727l218.298181-179.2c8.098909-6.702545 20.107636-0.744727 20.107637 10.053818v358.213818c0 10.798545-11.915636 16.942545-20.107637 10.24z" p-id="5344" fill="#8a8a8a"></path></svg>